<?xml version="1.0" encoding="UTF-8" standalone="no"?>
<!DOCTYPE svg PUBLIC "-//W3C//DTD SVG 20010904//EN"
              "http://www.w3.org/TR/2001/REC-SVG-20010904/DTD/svg10.dtd">

<svg xmlns="http://www.w3.org/2000/svg"
     width="15.4583in" height="4.58333in"
     viewBox="0 0 1113 330">
  <path id="Selection"
        fill="none" stroke="black" stroke-width="1"
        d="M 108.49,8.98
           C 111.76,5.20 117.11,-1.11 122.27,4.31
             124.69,6.86 126.60,12.61 128.76,16.00
             133.91,24.09 138.70,32.96 141.99,42.00
             141.99,42.00 146.48,55.00 146.48,55.00
             146.48,55.00 152.59,65.00 152.59,65.00
             154.64,69.50 153.40,71.73 155.02,75.00
             155.02,75.00 161.65,84.00 161.65,84.00
             161.65,84.00 168.95,99.00 168.95,99.00
             168.95,99.00 186.13,129.00 186.13,129.00
             186.13,129.00 193.27,142.09 193.27,142.09
             194.45,145.11 193.49,148.13 195.02,150.79
             196.21,152.86 198.43,153.88 200.32,156.21
             200.32,156.21 209.27,170.00 209.27,170.00
             212.80,174.88 219.21,182.60 221.47,188.00
             224.40,195.01 220.22,196.66 216.32,201.09
             211.52,206.54 211.61,210.66 203.02,209.94
             194.52,209.24 199.47,201.72 194.29,193.28
             191.15,188.18 188.73,184.78 186.46,179.00
             186.46,179.00 183.97,172.00 183.97,172.00
             183.97,172.00 178.07,161.00 178.07,161.00
             178.07,161.00 175.99,154.00 175.99,154.00
             173.49,149.01 170.00,149.15 167.00,136.00
             167.00,136.00 165.00,136.00 165.00,136.00
             164.24,137.34 164.20,138.04 162.71,138.98
             158.92,141.37 144.61,138.03 139.00,138.00
             139.00,138.00 109.00,140.00 109.00,140.00
             109.00,140.00 93.00,140.63 93.00,140.63
             87.46,140.28 88.08,141.88 81.00,142.00
             75.15,142.09 61.82,141.34 57.53,145.43
             55.78,147.10 47.54,162.91 46.14,166.00
             46.14,166.00 40.04,177.00 40.04,177.00
             40.04,177.00 29.32,199.98 29.32,199.98
             25.31,207.25 15.80,212.09 8.30,206.91
             3.37,203.68 6.15,198.84 8.30,195.00
             8.30,195.00 19.90,178.04 19.90,178.04
             19.90,178.04 25.42,171.83 25.42,171.83
             26.72,169.95 26.71,168.90 27.53,167.00
             27.53,167.00 32.74,158.00 32.74,158.00
             32.74,158.00 36.98,149.00 36.98,149.00
             36.98,149.00 41.63,141.00 41.63,141.00
             41.63,141.00 45.87,132.00 45.87,132.00
             45.87,132.00 54.10,118.00 54.10,118.00
             54.10,118.00 59.05,111.00 59.05,111.00
             64.19,101.79 63.32,100.00 66.67,92.00
             66.67,92.00 71.76,82.00 71.76,82.00
             71.76,82.00 78.68,64.00 78.68,64.00
             78.68,64.00 83.04,53.00 83.04,53.00
             83.04,53.00 87.15,46.00 87.15,46.00
             89.68,39.60 86.50,31.45 98.00,29.00
             94.77,15.72 101.31,17.25 108.49,8.98 Z
           M 780.00,95.69
           C 770.29,90.64 765.11,71.00 768.22,61.00
             771.09,51.76 772.73,52.19 777.58,45.91
             780.24,42.45 779.45,40.65 782.31,37.66
             789.97,29.66 805.81,20.55 816.00,15.78
             819.55,14.12 832.13,10.10 836.00,9.29
             836.00,9.29 847.00,7.63 847.00,7.63
             849.57,7.12 851.23,6.28 854.00,6.14
             854.00,6.14 871.00,7.97 871.00,7.97
             876.25,8.26 889.15,9.94 892.40,14.22
             898.53,22.30 879.43,31.61 873.00,30.50
             869.45,29.88 865.48,26.33 862.00,24.67
             859.03,23.26 849.50,21.52 846.00,21.17
             835.08,20.08 830.36,24.07 821.00,28.75
             814.78,31.87 810.07,33.88 805.09,39.04
             798.10,46.28 800.76,48.09 791.00,57.00
             794.88,62.25 793.96,67.64 791.00,73.00
             800.19,73.31 808.33,81.93 817.00,85.11
             820.53,86.31 822.35,84.85 827.00,85.11
             827.00,85.11 839.00,86.83 839.00,86.83
             846.88,87.59 856.77,85.85 860.00,95.00
             867.44,91.87 879.34,90.00 887.00,93.57
             890.87,95.37 893.69,98.57 897.00,100.49
             901.68,103.21 906.72,102.70 912.74,114.00
             914.92,118.10 916.16,130.22 915.96,135.00
             915.87,137.15 915.56,140.74 914.07,142.40
             912.52,144.12 910.10,143.93 908.00,144.00
             913.70,155.34 909.59,159.70 902.91,169.00
             893.81,181.67 891.72,183.08 879.00,191.34
             874.19,194.47 865.86,200.54 861.00,202.53
             854.25,205.29 837.12,209.24 830.00,208.96
             830.00,208.96 814.00,208.00 814.00,208.00
             814.00,208.00 791.00,205.88 791.00,205.88
             791.00,205.88 783.00,203.13 783.00,203.13
             779.35,202.23 776.71,203.57 772.00,202.28
             767.20,200.97 765.00,198.19 761.00,195.85
             757.42,193.75 755.55,193.98 752.00,192.75
             747.95,191.35 740.37,187.00 738.74,182.91
             735.71,175.32 747.80,158.05 755.89,159.42
             760.41,160.18 759.26,165.09 761.74,169.00
             763.65,172.02 774.63,180.11 778.04,181.32
             791.22,186.01 794.15,187.24 808.00,190.43
             808.00,190.43 814.00,191.87 814.00,191.87
             814.00,191.87 822.00,191.14 822.00,191.14
             822.00,191.14 828.00,191.83 828.00,191.83
             835.15,192.51 835.67,191.56 842.00,190.37
             848.50,189.15 855.00,189.56 860.91,185.30
             866.03,181.62 870.85,173.49 874.25,168.21
             875.91,165.63 877.46,165.04 878.41,162.79
             878.41,162.79 879.68,157.00 879.68,157.00
             881.57,151.00 887.69,141.09 886.08,135.00
             885.51,132.85 884.04,129.08 882.49,127.49
             878.62,123.53 865.35,118.17 860.00,115.75
             857.20,114.49 853.30,111.37 851.00,111.05
             849.49,110.84 847.58,111.54 846.00,111.66
             846.00,111.66 827.29,110.41 827.29,110.41
             825.74,109.70 825.80,109.20 825.00,108.00
             816.39,111.61 805.67,107.43 797.00,105.12
             791.52,103.65 788.04,103.08 787.00,97.00
             784.33,96.92 782.48,96.97 780.00,95.69 Z
           M 980.00,29.32
           C 980.00,29.32 968.00,29.32 968.00,29.32
             952.94,28.20 938.66,26.06 924.00,31.12
             919.64,32.63 909.89,33.18 909.18,26.95
             908.57,21.50 912.17,17.96 916.00,14.80
             923.31,8.80 930.10,4.66 939.99,6.14
             944.00,6.75 944.74,8.75 947.17,8.93
             949.72,9.12 951.25,7.03 956.00,7.33
             963.25,7.79 968.54,10.75 973.00,11.29
             975.48,11.75 976.68,11.31 979.00,11.29
             982.95,10.95 991.32,12.94 996.00,13.58
             996.00,13.58 1007.00,14.27 1007.00,14.27
             1007.00,14.27 1015.00,16.93 1015.00,16.93
             1018.16,17.45 1022.77,16.44 1029.00,17.62
             1029.00,17.62 1040.00,20.50 1040.00,20.50
             1045.24,20.65 1049.47,18.09 1054.00,17.30
             1057.57,16.72 1059.75,17.40 1063.00,17.30
             1063.00,17.30 1070.00,16.33 1070.00,16.33
             1075.69,15.85 1081.00,19.25 1095.00,14.64
             1098.22,13.58 1103.65,10.37 1106.65,12.06
             1111.67,14.72 1108.78,19.77 1106.65,23.00
             1101.22,30.63 1099.35,29.00 1092.00,32.66
             1089.38,33.96 1086.86,35.93 1084.00,36.57
             1084.00,36.57 1064.00,35.00 1064.00,35.00
             1064.00,35.00 1043.00,33.94 1043.00,33.94
             1043.00,33.94 1022.96,33.94 1022.96,33.94
             1022.96,33.94 1022.96,49.00 1022.96,49.00
             1022.96,49.00 1022.01,58.00 1022.01,58.00
             1021.90,62.59 1023.16,66.21 1019.00,69.00
             1020.05,70.49 1020.76,71.18 1021.35,73.00
             1022.49,76.07 1022.15,89.66 1021.35,93.00
             1020.58,95.80 1019.20,98.38 1018.00,101.00
             1023.74,104.25 1020.52,105.93 1020.96,111.00
             1021.34,115.27 1021.99,115.14 1022.00,121.00
             1022.00,121.00 1022.00,154.00 1022.00,154.00
             1021.86,161.31 1019.96,160.09 1018.97,163.13
             1017.90,166.41 1020.75,166.95 1022.14,172.01
             1023.03,175.25 1024.52,192.12 1023.40,194.95
             1022.46,197.34 1020.93,198.22 1018.98,199.69
             1014.32,203.22 1001.18,212.52 995.96,204.70
             994.52,202.11 995.39,198.81 995.96,196.00
             995.96,196.00 995.96,183.00 995.96,183.00
             995.96,183.00 997.00,163.00 997.00,163.00
             997.00,163.00 999.99,139.00 999.99,139.00
             1000.47,134.54 998.20,130.45 998.18,126.00
             998.18,126.00 999.00,113.00 999.00,113.00
             999.00,113.00 998.02,98.00 998.02,98.00
             998.02,98.00 999.19,87.00 999.19,87.00
             999.19,87.00 996.46,76.00 996.46,76.00
             996.46,76.00 994.71,57.00 994.71,57.00
             994.26,53.29 992.78,47.46 993.22,44.00
             993.66,40.59 996.54,35.39 998.00,32.00
             998.00,32.00 980.00,29.32 980.00,29.32 Z
           M 567.47,72.00
           C 567.47,72.00 567.47,62.00 567.47,62.00
             567.47,62.00 565.33,55.00 565.33,55.00
             565.33,55.00 564.21,41.00 564.21,41.00
             564.21,41.00 564.76,31.00 564.76,31.00
             563.67,24.12 555.92,22.72 557.66,17.05
             558.70,13.63 562.98,12.31 566.00,11.22
             576.69,7.36 581.82,8.70 592.00,7.42
             599.09,6.53 598.54,8.28 603.00,8.58
             603.00,8.58 615.00,7.19 615.00,7.19
             619.50,7.30 619.04,8.98 629.00,9.00
             647.88,9.03 649.84,8.42 669.00,11.41
             673.60,12.13 677.68,11.58 682.00,13.52
             693.21,18.55 705.80,19.86 706.00,35.00
             706.12,44.19 703.19,52.77 697.18,59.90
             697.18,59.90 692.50,64.59 692.50,64.59
             692.50,64.59 689.46,68.85 689.46,68.85
             689.46,68.85 679.00,78.59 679.00,78.59
             679.00,78.59 669.17,84.30 669.17,84.30
             669.17,84.30 661.99,89.92 661.99,89.92
             654.20,94.49 637.83,92.32 636.00,103.00
             641.37,104.60 642.91,106.39 642.00,112.00
             649.04,112.57 651.11,116.94 655.72,121.96
             655.72,121.96 665.56,132.00 665.56,132.00
             670.25,137.62 669.37,138.75 671.54,141.41
             671.54,141.41 679.04,149.00 679.04,149.00
             682.98,153.07 687.83,157.49 691.14,162.00
             694.26,166.25 693.91,168.15 696.31,170.32
             696.31,170.32 722.00,188.02 722.00,188.02
             729.10,192.70 738.57,187.01 740.26,194.04
             741.05,197.33 737.45,199.87 735.00,201.25
             729.72,204.22 717.06,207.93 711.00,208.00
             698.18,208.15 702.80,206.01 694.91,200.09
             689.65,196.15 686.05,194.93 681.99,189.00
             678.79,184.31 679.66,182.19 677.42,179.37
             677.42,179.37 651.99,156.95 651.99,156.95
             644.77,150.43 637.34,146.55 637.00,136.00
             624.58,134.24 622.25,127.93 613.83,120.37
             610.70,117.56 596.92,108.27 592.95,106.00
             591.53,117.20 593.20,114.04 592.95,121.00
             592.95,121.00 591.02,141.00 591.02,141.00
             591.02,141.00 591.96,154.00 591.96,154.00
             591.96,154.00 591.34,161.00 591.34,161.00
             591.34,161.00 593.21,177.00 593.21,177.00
             593.66,181.22 594.83,187.98 593.21,191.99
             590.42,199.23 584.32,197.95 579.00,200.77
             579.00,200.77 570.00,206.98 570.00,206.98
             568.02,207.93 564.47,208.45 562.60,206.98
             559.04,204.17 562.85,197.20 563.90,194.00
             563.90,194.00 566.96,171.00 566.96,171.00
             567.23,164.78 565.37,160.28 573.00,159.00
             573.00,159.00 568.24,147.00 568.24,147.00
             568.24,147.00 567.21,135.00 567.21,135.00
             567.21,135.00 568.49,117.00 568.49,117.00
             568.49,117.00 567.77,102.00 567.77,102.00
             567.77,102.00 567.77,94.09 567.77,94.09
             567.77,94.09 572.00,87.00 572.00,87.00
             566.12,83.69 568.40,78.05 567.47,72.00 Z
           M 382.44,100.00
           C 381.74,97.11 382.86,93.15 382.96,90.00
             382.96,90.00 381.94,77.00 381.94,77.00
             381.94,77.00 381.94,65.00 381.94,65.00
             381.94,65.00 379.42,58.00 379.42,58.00
             379.42,58.00 377.02,45.00 377.02,45.00
             376.70,41.02 378.07,37.66 377.02,30.00
             375.42,21.36 367.81,23.04 369.79,17.08
             371.87,10.85 386.18,7.81 392.00,8.04
             392.00,8.04 419.00,11.97 419.00,11.97
             431.75,13.37 428.89,11.69 436.00,11.97
             436.00,11.97 464.00,14.00 464.00,14.00
             464.00,14.00 474.00,13.18 474.00,13.18
             474.00,13.18 482.00,14.07 482.00,14.07
             482.00,14.07 499.00,10.14 499.00,10.14
             502.09,9.10 509.44,6.31 511.97,9.60
             514.76,13.22 510.53,17.77 508.33,20.27
             499.33,30.52 494.74,29.85 482.00,29.92
             470.19,30.14 478.34,31.61 462.00,29.92
             458.16,29.42 452.12,27.46 449.00,28.03
             449.00,28.03 443.00,29.67 443.00,29.67
             439.55,30.27 425.10,29.51 421.00,29.14
             418.77,28.97 410.91,28.19 409.31,29.14
             405.77,31.15 407.73,37.20 407.25,41.00
             407.25,41.00 407.25,47.00 407.25,47.00
             406.97,49.11 406.81,52.81 408.02,54.57
             409.99,57.44 422.25,57.77 426.00,58.02
             426.00,58.02 445.00,60.11 445.00,60.11
             445.00,60.11 452.00,59.00 452.00,59.00
             452.00,59.00 462.00,59.00 462.00,59.00
             462.00,59.00 475.00,57.24 475.00,57.24
             475.00,57.24 480.00,57.24 480.00,57.24
             482.05,56.93 498.96,50.38 496.67,60.99
             495.77,65.12 485.95,73.06 482.00,74.69
             479.93,75.13 476.25,75.04 474.00,74.69
             474.00,74.69 466.00,74.69 466.00,74.69
             466.00,74.69 458.00,74.69 458.00,74.69
             458.00,74.69 448.00,73.46 448.00,73.46
             448.00,73.46 433.00,74.17 433.00,74.17
             428.00,74.65 421.90,76.19 417.00,75.91
             417.00,75.91 407.00,75.00 407.00,75.00
             407.00,75.00 406.42,88.00 406.42,88.00
             406.42,88.00 407.60,94.00 407.60,94.00
             407.60,94.00 407.60,100.00 407.60,100.00
             408.03,105.31 408.88,102.54 408.52,110.00
             408.52,110.00 408.52,130.00 408.52,130.00
             408.52,130.00 409.75,136.00 409.75,136.00
             410.15,141.00 407.20,143.51 407.33,147.00
             407.43,149.57 409.18,151.41 409.78,155.00
             409.78,155.00 410.91,171.00 410.91,171.00
             411.10,173.50 410.73,176.33 412.60,178.30
             414.20,179.99 418.72,181.24 421.00,182.00
             429.62,184.88 430.72,185.91 440.00,186.05
             440.00,186.05 450.00,185.27 450.00,185.27
             450.00,185.27 461.00,187.03 461.00,187.03
             461.00,187.03 483.00,187.99 483.00,187.99
             483.00,187.99 494.00,187.18 494.00,187.18
             494.00,187.18 502.00,187.97 502.00,187.97
             512.30,187.97 525.72,185.31 536.00,183.59
             536.00,183.59 549.00,181.18 549.00,181.18
             551.03,181.00 553.86,180.98 555.36,182.60
             557.61,185.02 555.93,191.24 552.78,192.11
             551.43,192.64 550.29,192.21 549.00,192.11
             546.41,200.79 543.13,201.74 535.00,203.51
             531.53,204.26 529.77,205.10 526.00,204.89
             526.00,204.89 517.00,203.35 517.00,203.35
             517.00,203.35 506.00,203.99 506.00,203.99
             500.10,203.84 499.86,202.82 496.00,202.36
             496.00,202.36 486.00,202.99 486.00,202.99
             486.00,202.99 474.00,202.26 474.00,202.26
             474.00,202.26 452.00,203.00 452.00,203.00
             443.71,203.04 442.61,204.84 439.00,204.77
             439.00,204.77 432.00,203.30 432.00,203.30
             432.00,203.30 421.00,203.91 421.00,203.91
             421.00,203.91 401.00,203.00 401.00,203.00
             395.22,203.01 381.52,205.09 378.12,198.61
             376.39,195.30 380.90,189.54 381.98,183.00
             384.27,169.24 385.16,154.95 385.00,141.00
             385.00,141.00 384.02,129.00 384.02,129.00
             384.02,129.00 384.82,118.00 384.82,118.00
             384.83,113.49 382.57,110.98 387.00,108.00
             385.44,105.63 383.11,102.72 382.44,100.00 Z
           M 192.17,46.98
           C 185.15,43.04 180.52,28.46 184.45,21.04
             186.82,16.58 192.63,14.41 197.00,12.25
             200.83,10.35 209.78,6.41 213.19,11.31
             214.80,14.12 212.88,18.06 213.19,21.00
             214.22,25.64 217.13,24.81 219.10,33.99
             220.69,41.38 224.72,38.81 222.00,50.00
             225.69,50.00 229.60,49.71 232.98,51.45
             237.30,53.68 242.45,62.34 243.79,67.00
             244.08,69.03 243.99,71.87 243.79,74.00
             252.32,74.67 253.01,79.35 258.29,84.83
             263.83,90.59 267.70,90.37 268.00,99.00
             273.46,99.88 276.20,102.64 279.51,107.00
             280.95,108.89 282.15,112.38 285.11,111.70
             286.99,111.27 290.45,108.23 291.82,106.83
             294.45,104.14 303.84,91.43 305.85,88.00
             305.85,88.00 311.55,78.00 311.55,78.00
             313.99,74.20 316.88,71.18 318.81,67.00
             318.81,67.00 324.03,54.00 324.03,54.00
             324.03,54.00 326.40,47.00 326.40,47.00
             326.40,47.00 334.12,33.72 334.12,33.72
             335.47,30.76 335.17,28.35 337.09,25.00
             340.28,19.42 352.56,11.08 359.00,10.21
             365.33,9.36 366.59,12.37 365.32,18.00
             363.82,24.69 359.05,29.18 355.78,35.00
             354.09,38.02 352.52,41.15 350.41,43.91
             350.41,43.91 345.41,50.09 345.41,50.09
             343.24,53.75 342.83,57.43 339.67,62.00
             339.67,62.00 331.17,72.09 331.17,72.09
             331.17,72.09 328.21,80.00 328.21,80.00
             328.21,80.00 319.34,94.00 319.34,94.00
             314.87,101.55 313.77,106.25 305.00,110.00
             307.51,120.86 299.09,122.33 294.82,133.00
             294.82,133.00 291.42,148.00 291.42,148.00
             291.63,151.43 293.23,149.59 293.00,162.00
             292.92,166.15 293.14,167.55 289.00,169.00
             293.29,179.94 292.19,179.93 292.80,191.00
             292.96,193.93 294.41,197.00 292.80,199.77
             290.81,203.24 287.29,202.55 284.00,202.95
             278.35,203.88 266.05,209.66 262.02,202.95
             259.10,197.92 262.64,187.31 263.35,182.00
             263.35,182.00 262.32,158.00 262.32,158.00
             262.32,158.00 264.59,151.00 264.59,151.00
             264.59,151.00 265.39,136.00 265.39,136.00
             264.64,131.66 255.43,122.37 251.92,119.41
             251.92,119.41 247.59,116.20 247.59,116.20
             245.65,114.14 246.12,111.85 244.26,109.09
             242.02,105.76 237.08,103.10 235.02,99.00
             233.43,95.83 234.53,92.67 232.98,90.31
             231.53,88.11 229.15,88.24 227.55,87.00
             225.77,85.60 225.56,83.42 223.57,81.73
             219.94,78.65 220.85,82.36 212.91,74.00
             209.32,70.21 196.91,57.51 195.87,53.00
             195.35,50.73 196.12,49.89 197.00,48.00
             195.20,47.85 193.83,47.91 192.17,46.98 Z
           M 592.99,72.00
           C 593.32,78.31 591.13,82.49 592.99,85.81
             595.62,90.36 599.82,89.05 604.00,89.08
             604.00,89.08 614.00,89.80 614.00,89.80
             614.00,89.80 625.00,87.17 625.00,87.17
             635.77,85.59 640.58,82.83 650.00,77.98
             652.23,76.83 654.71,76.03 656.62,74.35
             658.91,72.35 660.71,68.57 662.61,66.00
             669.66,56.46 671.33,56.95 674.09,44.00
             676.38,33.25 665.57,28.49 657.00,26.50
             657.00,26.50 645.00,22.91 645.00,22.91
             645.00,22.91 635.00,22.91 635.00,22.91
             635.00,22.91 627.00,22.18 627.00,22.18
             627.00,22.18 611.00,23.85 611.00,23.85
             607.47,24.27 598.23,24.80 595.59,26.30
             586.84,31.27 590.81,40.96 590.99,49.00
             591.17,57.07 589.98,56.19 587.00,63.00
             591.27,65.62 592.66,66.76 592.99,72.00 Z
           M 143.21,94.09
           C 143.21,94.09 138.59,87.91 138.59,87.91
             136.97,85.62 133.49,78.72 132.28,76.00
             130.01,70.94 131.12,69.52 129.90,67.37
             128.24,64.43 125.45,64.90 121.26,57.00
             118.10,51.04 115.99,42.17 109.00,40.00
             109.00,40.00 97.99,59.00 97.99,59.00
             97.99,59.00 95.68,66.00 95.68,66.00
             95.68,66.00 87.49,84.00 87.49,84.00
             87.49,84.00 79.30,98.00 79.30,98.00
             79.30,98.00 76.74,107.00 76.74,107.00
             76.74,107.00 73.05,114.00 73.05,114.00
             73.05,114.00 71.77,118.83 71.77,118.83
             71.77,118.83 69.00,124.04 69.00,124.04
             69.00,124.04 85.00,124.04 85.00,124.04
             85.00,124.04 97.00,124.94 97.00,124.94
             97.00,124.94 116.00,124.94 116.00,124.94
             116.00,124.94 145.00,122.17 145.00,122.17
             145.00,122.17 158.00,121.00 158.00,121.00
             153.94,111.73 154.47,116.11 153.00,105.00
             146.22,102.63 146.52,99.68 143.21,94.09 Z
           M 745.78,302.83
           C 752.23,300.09 746.67,289.50 743.96,286.04
             736.49,276.50 725.76,272.57 721.60,260.00
             715.09,240.34 732.75,223.74 752.00,230.61
             758.14,232.80 763.36,238.77 765.04,245.00
             765.62,246.98 766.40,250.49 765.04,252.26
             762.96,254.86 751.38,255.00 748.00,255.00
             747.92,251.52 747.76,245.75 743.87,244.17
             739.95,242.58 736.03,248.02 738.98,255.00
             741.42,260.77 747.54,264.92 752.00,269.09
             759.88,276.46 765.51,283.84 765.96,295.00
             766.53,309.23 757.85,317.00 744.00,317.00
             739.33,317.00 736.20,316.87 732.00,314.47
             723.39,309.53 721.69,300.96 720.00,292.00
             720.00,292.00 738.00,288.00 738.00,288.00
             738.01,291.76 738.60,305.89 745.78,302.83 Z
           M 1088.09,302.95
           C 1089.44,303.16 1090.55,302.59 1091.48,301.64
             1095.52,297.49 1091.49,289.68 1088.61,286.00
             1081.24,276.59 1066.95,270.19 1065.18,256.00
             1064.71,252.18 1064.99,246.64 1066.25,243.00
             1071.14,228.78 1092.03,225.12 1102.91,234.39
             1106.53,237.47 1113.36,248.96 1108.40,252.98
             1106.10,254.84 1096.16,255.00 1093.00,255.00
             1092.59,251.95 1091.99,245.54 1088.78,244.17
             1085.38,242.71 1080.11,247.70 1083.42,255.00
             1086.51,261.84 1092.74,265.23 1097.96,270.17
             1106.76,278.49 1112.93,290.69 1109.65,303.00
             1105.99,316.72 1086.97,320.89 1076.00,314.01
             1067.90,308.93 1065.20,300.04 1065.00,291.00
             1065.00,291.00 1082.00,288.00 1082.00,288.00
             1082.32,291.94 1083.07,302.18 1088.09,302.95 Z
           M 253.10,302.83
           C 259.45,305.35 259.42,295.56 258.02,292.00
             254.52,283.09 245.58,278.34 239.17,271.83
             232.56,265.12 229.38,255.31 231.53,246.00
             235.63,228.23 258.10,226.40 267.91,233.80
             275.36,239.41 275.99,245.46 276.00,254.00
             276.00,254.00 259.00,256.00 259.00,256.00
             258.75,252.90 258.26,246.76 255.57,244.79
             251.70,241.96 246.14,247.53 249.23,255.00
             252.93,263.96 266.44,269.77 272.87,282.00
             276.63,289.16 278.00,298.46 274.64,306.00
             269.67,317.16 255.63,320.14 245.00,315.86
             238.28,313.15 234.01,306.73 232.03,300.00
             231.41,297.83 230.58,294.57 232.03,292.56
             234.20,289.55 244.42,289.03 248.00,289.00
             248.53,292.98 248.81,301.13 253.10,302.83 Z
           M 344.10,302.83
           C 349.91,305.14 350.30,296.45 349.15,293.00
             346.09,283.85 336.46,278.37 330.09,271.91
             323.01,264.73 319.83,253.85 322.80,244.00
             327.17,229.51 347.37,226.65 356.96,232.61
             365.15,237.70 366.97,245.06 367.00,254.19
             363.50,254.08 351.92,256.67 350.02,254.19
             348.43,252.48 349.49,246.93 345.78,244.74
             343.37,243.33 341.21,244.92 340.02,247.06
             335.74,254.81 346.10,262.97 351.00,267.28
             361.61,276.64 370.07,288.07 366.47,303.00
             362.93,317.65 343.51,321.50 332.04,313.87
             324.36,308.76 322.03,299.64 322.00,291.00
             322.00,291.00 339.00,288.00 339.00,288.00
             339.09,292.18 339.51,301.01 344.10,302.83 Z
           M 597.41,302.24
           C 601.19,305.15 606.65,301.55 603.75,293.00
             600.15,282.37 586.18,275.70 579.97,266.00
             571.53,252.82 575.80,230.53 598.00,230.01
             608.35,229.78 615.93,232.76 620.07,243.00
             621.00,245.30 622.60,250.19 620.96,252.41
             619.29,254.67 607.14,255.75 604.00,256.00
             603.92,252.49 603.76,245.77 599.86,244.17
             596.17,242.65 591.96,247.79 594.16,254.00
             596.72,261.24 605.66,266.62 610.91,272.04
             622.40,283.90 629.06,307.19 610.00,315.64
             607.82,316.61 604.38,317.46 602.00,317.67
             591.25,318.62 582.40,312.94 578.46,303.00
             577.52,300.62 575.47,294.87 577.06,292.58
             579.00,289.79 590.60,289.03 594.00,289.00
             594.01,293.06 593.83,299.48 597.41,302.24 Z
           M 680.00,312.39
           C 677.12,312.58 675.15,315.35 669.00,316.53
             655.97,319.04 646.35,312.78 646.01,299.00
             645.86,292.83 646.39,288.55 649.33,283.00
             650.75,280.29 654.53,275.52 654.89,273.00
             655.23,270.60 652.55,264.67 651.67,262.00
             648.36,251.97 646.30,237.23 658.00,231.57
             660.61,230.31 663.16,230.08 666.00,230.01
             685.10,229.55 688.90,246.23 682.10,261.00
             679.01,267.71 674.26,271.42 673.97,275.00
             673.78,277.52 677.82,283.81 679.00,287.00
             679.00,287.00 681.00,287.00 681.00,287.00
             681.39,284.82 682.11,276.75 683.02,275.60
             684.93,273.19 694.05,273.15 695.31,276.31
             697.33,281.37 690.86,296.78 690.81,297.96
             690.67,301.28 693.45,302.11 696.00,303.00
             696.00,303.00 696.00,317.00 696.00,317.00
             685.12,316.73 684.48,312.11 680.00,312.39 Z
           M 37.00,233.92
           C 45.44,237.93 47.20,245.45 46.99,254.00
             46.92,256.48 46.80,258.72 45.69,261.00
             43.87,264.72 40.14,267.42 37.00,270.00
             40.38,271.66 42.99,273.03 45.36,276.09
             52.53,285.34 50.87,305.09 40.96,311.89
             32.53,317.69 14.36,316.00 4.00,316.00
             4.00,316.00 4.00,231.00 4.00,231.00
             13.18,231.00 28.91,230.07 37.00,233.92 Z
           M 57.00,251.00
           C 57.00,233.44 55.38,231.16 64.00,231.00
             64.00,231.00 68.00,231.00 68.00,231.00
             75.49,231.14 74.99,233.26 75.00,240.00
             75.00,240.00 75.00,304.00 75.00,304.00
             78.00,304.00 88.40,303.44 90.40,305.02
             92.56,306.73 92.56,313.27 90.40,314.98
             89.06,316.04 86.62,315.97 85.00,316.00
             85.00,316.00 57.00,316.00 57.00,316.00
             57.00,316.00 57.00,251.00 57.00,251.00 Z
           M 114.00,231.00
           C 114.00,231.00 114.00,316.00 114.00,316.00
             114.00,316.00 97.00,316.00 97.00,316.00
             97.00,316.00 97.00,231.00 97.00,231.00
             97.00,231.00 114.00,231.00 114.00,231.00 Z
           M 135.61,232.02
           C 138.04,233.59 140.39,240.18 141.58,243.00
             144.46,249.87 150.54,267.33 155.00,272.00
             155.00,272.00 155.00,231.00 155.00,231.00
             155.00,231.00 169.00,231.00 169.00,231.00
             169.00,231.00 169.00,316.00 169.00,316.00
             166.25,316.00 159.63,316.45 157.50,314.98
             155.19,313.39 152.73,305.82 151.68,303.00
             149.31,296.64 142.80,278.31 139.00,274.00
             139.00,274.00 139.00,316.00 139.00,316.00
             139.00,316.00 124.00,316.00 124.00,316.00
             124.00,316.00 124.00,231.00 124.00,231.00
             126.85,231.00 133.35,230.56 135.61,232.02 Z
           M 217.82,236.39
           C 222.12,240.19 223.70,245.53 224.78,251.00
             224.78,251.00 224.78,288.00 224.78,288.00
             224.96,295.51 223.93,305.42 217.90,310.61
             209.54,317.80 189.77,316.00 179.00,316.00
             179.00,316.00 179.00,231.00 179.00,231.00
             189.12,231.00 210.11,229.59 217.82,236.39 Z
           M 391.00,231.00
           C 391.00,231.00 391.00,266.00 391.00,266.00
             391.00,266.00 403.00,266.00 403.00,266.00
             403.00,266.00 403.00,239.00 403.00,239.00
             403.01,237.18 402.85,234.08 404.02,232.60
             405.87,230.26 418.13,230.26 419.98,232.60
             421.23,234.19 421.00,238.01 421.00,240.00
             421.00,240.00 421.00,298.00 421.00,298.00
             421.00,301.39 421.90,313.00 419.40,314.98
             417.92,316.15 414.82,315.99 413.00,316.00
             413.00,316.00 403.00,316.00 403.00,316.00
             403.00,316.00 403.00,278.00 403.00,278.00
             400.14,278.00 394.71,277.49 392.60,279.60
             390.81,281.39 391.02,284.65 391.00,287.00
             391.00,287.00 391.00,316.00 391.00,316.00
             391.00,316.00 374.00,316.00 374.00,316.00
             374.00,316.00 374.00,231.00 374.00,231.00
             374.00,231.00 391.00,231.00 391.00,231.00 Z
           M 431.58,289.00
           C 431.58,289.00 440.80,246.00 440.80,246.00
             443.56,232.43 442.95,230.84 453.00,231.00
             454.37,231.03 456.46,231.01 457.70,231.60
             461.33,233.32 463.16,247.82 464.12,252.00
             464.12,252.00 478.00,316.00 478.00,316.00
             474.47,316.00 463.15,316.92 460.98,314.40
             457.31,310.13 460.98,298.11 452.00,298.11
             442.83,298.11 446.26,310.29 442.84,314.43
             440.78,316.92 429.44,316.00 426.00,316.00
             426.00,316.00 431.58,289.00 431.58,289.00 Z
           M 521.82,236.53
           C 526.20,240.33 527.69,245.48 528.78,251.00
             528.78,251.00 528.78,288.00 528.78,288.00
             528.96,295.51 527.93,305.42 521.90,310.61
             513.54,317.80 493.77,316.00 483.00,316.00
             483.00,316.00 483.00,231.00 483.00,231.00
             493.51,231.00 513.70,229.49 521.82,236.53 Z
           M 573.00,231.00
           C 573.00,231.00 573.00,243.00 573.00,243.00
             573.00,243.00 555.00,243.00 555.00,243.00
             555.00,243.00 555.00,266.00 555.00,266.00
             555.00,266.00 568.00,266.00 568.00,266.00
             568.00,266.00 568.00,278.00 568.00,278.00
             565.35,278.00 559.41,277.62 557.31,279.02
             554.73,280.75 555.02,284.27 555.00,287.00
             555.00,287.00 555.00,304.00 555.00,304.00
             555.00,304.00 573.00,304.00 573.00,304.00
             573.00,304.00 573.00,316.00 573.00,316.00
             573.00,316.00 538.00,316.00 538.00,316.00
             538.00,316.00 538.00,231.00 538.00,231.00
             538.00,231.00 573.00,231.00 573.00,231.00 Z
           M 790.00,231.00
           C 790.00,231.00 790.00,257.00 790.00,257.00
             790.03,261.15 789.78,265.22 795.02,265.84
             796.46,266.01 798.45,265.80 799.69,264.98
             802.45,263.14 801.99,258.91 802.00,256.00
             802.00,256.00 802.00,231.00 802.00,231.00
             802.00,231.00 819.00,231.00 819.00,231.00
             819.00,231.00 819.00,316.00 819.00,316.00
             819.00,316.00 803.60,314.98 803.60,314.98
             803.60,314.98 802.00,308.00 802.00,308.00
             802.00,308.00 802.00,278.00 802.00,278.00
             802.00,278.00 790.00,278.00 790.00,278.00
             790.00,278.00 790.00,316.00 790.00,316.00
             790.00,316.00 773.00,316.00 773.00,316.00
             773.00,316.00 773.00,231.00 773.00,231.00
             773.00,231.00 790.00,231.00 790.00,231.00 Z
           M 846.00,231.00
           C 846.00,231.00 846.00,289.00 846.00,289.00
             846.06,293.80 847.41,305.63 854.96,303.34
             860.33,301.72 860.94,293.62 861.00,289.00
             861.00,289.00 861.00,231.00 861.00,231.00
             861.00,231.00 878.00,231.00 878.00,231.00
             878.00,231.00 878.00,288.00 878.00,288.00
             877.97,304.16 873.40,316.79 855.00,317.00
             850.56,317.05 846.19,317.10 842.00,315.39
             832.08,311.34 829.12,299.73 829.00,290.00
             829.00,290.00 829.00,231.00 829.00,231.00
             829.00,231.00 846.00,231.00 846.00,231.00 Z
           M 883.06,236.02
           C 883.54,230.20 887.29,231.01 892.00,231.00
             892.00,231.00 914.00,231.00 914.00,231.00
             918.69,231.00 922.06,230.19 926.00,233.00
             929.31,230.56 931.03,231.01 935.00,231.00
             935.00,231.00 968.00,231.00 968.00,231.00
             968.00,231.00 968.00,244.00 968.00,244.00
             968.00,244.00 956.00,244.00 956.00,244.00
             956.00,244.00 956.00,316.00 956.00,316.00
             956.00,316.00 939.00,316.00 939.00,316.00
             939.00,316.00 939.00,244.00 939.00,244.00
             934.32,244.00 929.88,244.86 926.00,242.00
             921.98,244.88 917.81,244.00 913.00,244.00
             913.00,244.00 913.00,316.00 913.00,316.00
             913.00,316.00 896.00,316.00 896.00,316.00
             896.00,316.00 896.00,244.00 896.00,244.00
             888.53,244.00 882.22,246.08 883.06,236.02 Z
           M 1009.00,231.00
           C 1009.00,231.00 1009.00,243.00 1009.00,243.00
             1009.00,243.00 991.00,243.00 991.00,243.00
             991.00,247.47 989.73,262.59 993.31,264.98
             995.41,266.38 1001.35,266.00 1004.00,266.00
             1004.00,266.00 1004.00,278.00 1004.00,278.00
             1004.00,278.00 991.00,278.00 991.00,278.00
             991.00,278.00 991.00,304.00 991.00,304.00
             991.00,304.00 1009.00,304.00 1009.00,304.00
             1009.00,304.00 1009.00,316.00 1009.00,316.00
             1009.00,316.00 974.00,316.00 974.00,316.00
             974.00,316.00 974.00,231.00 974.00,231.00
             974.00,231.00 1009.00,231.00 1009.00,231.00 Z
           M 1060.62,249.00
           C 1061.07,251.97 1061.10,255.01 1060.62,258.00
             1060.17,262.11 1058.99,266.53 1056.37,269.82
             1054.03,272.74 1050.99,273.72 1050.83,277.09
             1050.74,278.98 1053.28,286.81 1054.00,289.00
             1056.42,296.32 1061.36,308.88 1062.00,316.00
             1062.00,316.00 1045.56,314.98 1045.56,314.98
             1045.56,314.98 1041.87,305.00 1041.87,305.00
             1041.87,305.00 1035.00,277.00 1035.00,277.00
             1035.00,277.00 1033.00,277.00 1033.00,277.00
             1033.00,277.00 1032.00,316.00 1032.00,316.00
             1028.71,316.00 1017.98,316.88 1016.02,314.40
             1014.77,312.81 1015.00,308.99 1015.00,307.00
             1015.00,307.00 1015.00,231.00 1015.00,231.00
             1031.81,231.00 1056.55,226.91 1060.62,249.00 Z
           M 671.76,247.02
           C 671.32,244.36 669.38,241.48 666.14,242.66
             660.75,244.75 664.57,258.09 666.14,262.00
             666.14,262.00 668.00,262.00 668.00,262.00
             669.82,257.68 672.55,251.82 671.76,247.02 Z
           M 28.57,262.40
           C 31.98,259.44 32.03,247.68 28.57,244.74
             26.47,242.95 23.58,243.07 21.00,243.00
             21.00,243.00 21.00,264.00 21.00,264.00
             23.55,263.97 26.51,264.19 28.57,262.40 Z
           M 205.98,300.72
           C 207.49,298.32 207.00,290.14 207.00,287.00
             207.00,287.00 207.00,253.00 207.00,253.00
             206.94,244.49 205.14,244.08 197.00,244.00
             197.00,244.00 197.00,304.00 197.00,304.00
             200.16,303.84 204.08,303.74 205.98,300.72 Z
           M 509.98,300.72
           C 511.49,298.32 511.00,290.14 511.00,287.00
             511.00,287.00 511.00,253.00 511.00,253.00
             510.88,244.57 508.90,244.08 501.00,244.00
             501.00,244.00 501.00,304.00 501.00,304.00
             504.16,303.84 508.08,303.74 509.98,300.72 Z
           M 1032.60,246.31
           C 1031.70,248.14 1031.70,261.86 1032.60,263.69
             1033.87,266.28 1037.45,266.21 1039.61,264.82
             1043.88,262.09 1046.78,242.07 1034.31,244.60
             1033.93,244.93 1033.31,244.87 1032.60,246.31 Z
           M 451.00,262.00
           C 451.00,262.00 448.00,287.00 448.00,287.00
             448.00,287.00 456.00,287.00 456.00,287.00
             456.00,287.00 453.00,262.00 453.00,262.00
             453.00,262.00 451.00,262.00 451.00,262.00 Z
           M 21.00,288.00
           C 21.00,288.00 21.00,297.00 21.00,297.00
             21.18,306.31 27.53,304.01 30.28,300.70
             33.92,296.31 36.63,276.92 21.00,276.00
             21.00,276.00 21.00,288.00 21.00,288.00 Z
           M 662.00,288.00
           C 661.00,291.52 659.86,300.59 662.74,303.39
             665.30,305.88 670.32,303.76 669.99,299.96
             669.99,299.96 664.00,288.00 664.00,288.00
             664.00,288.00 662.00,288.00 662.00,288.00 Z
           M 297.00,301.00
           C 297.00,305.82 297.70,319.20 295.69,322.89
             294.11,325.78 288.72,329.17 285.74,326.36
             283.92,324.65 284.06,321.29 284.00,319.00
             284.00,319.00 287.00,316.00 287.00,316.00
             287.00,316.00 282.00,316.00 282.00,316.00
             282.00,316.00 282.00,301.00 282.00,301.00
             282.00,301.00 297.00,301.00 297.00,301.00 Z" />
</svg>
