<?xml version="1.0" encoding="UTF-8" standalone="no"?>
<!DOCTYPE svg PUBLIC "-//W3C//DTD SVG 20010904//EN"
              "http://www.w3.org/TR/2001/REC-SVG-20010904/DTD/svg10.dtd">

<svg xmlns="http://www.w3.org/2000/svg" viewBox="0 0 1000 1000">
  <path id="Selection #2"
        fill="none" stroke="black" stroke-width="1"
        d="M 409.00,126.00
           C 409.00,126.00 409.00,355.00 409.00,355.00
             409.00,355.00 126.00,355.00 126.00,355.00
             126.00,355.00 126.00,126.00 126.00,126.00
             126.00,126.00 409.00,126.00 409.00,126.00 Z
           M 874.00,126.00
           C 874.00,126.00 874.00,378.00 874.00,378.00
             874.00,378.00 874.00,504.00 874.00,504.00
             874.00,504.00 873.00,519.00 873.00,519.00
             873.00,519.00 873.00,570.00 873.00,570.00
             873.00,570.00 482.00,570.00 482.00,570.00
             482.00,570.00 482.00,518.00 482.00,518.00
             482.00,518.00 481.00,501.00 481.00,501.00
             481.00,501.00 481.00,126.00 481.00,126.00
             481.00,126.00 874.00,126.00 874.00,126.00 Z
           M 409.00,427.00
           C 409.00,427.00 409.00,874.00 409.00,874.00
             409.00,874.00 126.00,874.00 126.00,874.00
             126.00,874.00 126.00,427.00 126.00,427.00
             126.00,427.00 409.00,427.00 409.00,427.00 Z
           M 872.00,644.00
           C 872.00,644.00 872.00,872.00 872.00,872.00
             872.00,872.00 483.00,872.00 483.00,872.00
             483.00,872.00 483.00,644.00 483.00,644.00
             483.00,644.00 872.00,644.00 872.00,644.00 Z" />
</svg>
