<?xml version="1.0" encoding="UTF-8" standalone="no"?>
<!DOCTYPE svg PUBLIC "-//W3C//DTD SVG 20010904//EN"
              "http://www.w3.org/TR/2001/REC-SVG-20010904/DTD/svg10.dtd">

<svg xmlns="http://www.w3.org/2000/svg"
     width="8.88889in" height="8.88889in"
     viewBox="0 0 800 800">
  <path id="Selection #1"
        fill="none" stroke="black" stroke-width="1"
        d="M 255.00,75.11
           C 255.00,75.11 337.00,75.11 337.00,75.11
             337.00,75.11 585.00,75.11 585.00,75.11
             638.58,75.08 687.92,124.42 688.00,178.00
             688.00,178.00 688.00,614.00 688.00,614.00
             687.92,667.51 638.51,716.92 585.00,717.00
             585.00,717.00 220.00,717.00 220.00,717.00
             211.19,716.99 202.44,715.19 194.00,712.71
             150.96,700.03 117.07,658.58 117.00,613.00
             117.00,613.00 117.00,179.00 117.00,179.00
             117.06,141.13 141.11,105.02 174.00,87.31
             186.52,80.57 198.12,77.70 212.00,75.11
             212.00,75.11 255.00,75.11 255.00,75.11 Z
           M 205.00,130.25
           C 184.00,138.53 169.27,159.34 169.00,182.00
             169.00,182.00 169.00,281.00 169.00,281.00
             169.00,281.00 169.00,478.00 169.00,478.00
             169.00,478.00 169.00,548.00 169.00,548.00
             169.01,551.51 168.81,554.75 170.45,558.00
             176.48,569.90 200.81,573.98 213.00,574.00
             213.00,574.00 228.00,574.00 228.00,574.00
             250.94,573.73 263.88,562.58 283.00,553.26
             296.41,546.72 314.04,542.02 329.00,542.00
             350.95,541.97 362.27,543.47 382.00,554.31
             388.03,557.62 391.75,560.87 397.00,565.11
             399.11,566.82 401.07,568.82 404.00,567.84
             405.73,567.26 409.37,563.95 411.00,562.66
             415.61,559.03 419.84,556.11 425.00,553.31
             444.06,542.97 456.91,541.76 478.00,542.00
             491.93,542.17 509.50,547.20 522.00,553.26
             534.90,559.50 541.62,565.09 556.00,570.14
             569.23,574.78 581.26,574.16 595.00,574.00
             606.46,573.86 629.01,569.02 634.55,558.00
             636.19,554.73 635.99,551.53 636.00,548.00
             636.00,548.00 636.00,312.00 636.00,312.00
             636.00,312.00 636.00,181.00 636.00,181.00
             635.61,148.08 607.33,126.05 576.00,126.07
             576.00,126.07 343.00,126.07 343.00,126.07
             343.00,126.07 265.00,126.07 265.00,126.07
             265.00,126.07 223.00,126.07 223.00,126.07
             215.55,127.36 212.39,127.34 205.00,130.25 Z
           M 383.00,142.00
           C 392.72,142.02 391.61,143.28 397.58,157.00
             397.58,157.00 415.86,198.00 415.86,198.00
             415.86,198.00 497.70,381.00 497.70,381.00
             497.70,381.00 550.86,500.00 550.86,500.00
             550.86,500.00 562.00,525.00 562.00,525.00
             563.05,527.44 565.83,532.26 564.77,534.78
             563.15,538.61 551.76,540.09 548.00,539.82
             524.05,538.11 512.56,523.66 500.00,505.00
             500.00,505.00 491.19,492.00 491.19,492.00
             491.19,492.00 454.69,436.00 454.69,436.00
             454.69,436.00 410.67,368.00 410.67,368.00
             410.67,368.00 380.81,322.00 380.81,322.00
             378.55,318.37 373.14,307.37 368.00,309.17
             365.55,310.02 360.07,315.93 358.00,318.00
             358.00,318.00 339.00,336.99 339.00,336.99
             339.00,336.99 320.00,354.13 320.00,354.13
             303.22,368.58 288.27,379.96 265.00,380.00
             254.02,380.02 256.47,379.97 246.00,378.00
             246.99,370.78 252.66,363.35 256.28,357.00
             256.28,357.00 279.00,318.00 279.00,318.00
             282.24,312.37 289.11,300.99 290.31,295.00
             291.66,288.22 285.78,280.53 282.32,275.00
             276.93,266.40 272.65,256.94 270.34,247.00
             266.92,231.35 267.33,216.69 270.34,201.00
             270.34,201.00 275.79,176.00 275.79,176.00
             275.10,164.37 264.54,150.89 262.00,142.00
             262.00,142.00 383.00,142.00 383.00,142.00 Z
           M 383.66,352.00
           C 383.66,352.00 397.05,373.00 397.05,373.00
             398.68,375.56 402.16,380.02 402.17,383.00
             402.18,385.82 398.86,390.59 397.31,393.00
             397.31,393.00 385.05,412.00 385.05,412.00
             385.05,412.00 338.33,485.00 338.33,485.00
             338.33,485.00 314.66,522.00 314.66,522.00
             312.75,524.91 307.40,534.23 304.67,535.48
             302.73,536.28 299.06,535.92 297.00,535.48
             286.15,533.49 279.89,526.38 277.16,516.00
             273.30,501.38 278.88,490.40 285.70,478.00
             285.70,478.00 297.23,457.00 297.23,457.00
             297.23,457.00 325.25,406.00 325.25,406.00
             325.25,406.00 367.00,330.00 367.00,330.00
             372.83,333.03 379.77,346.05 383.66,352.00 Z
           M 612.00,609.39
           C 592.49,612.93 570.18,612.57 551.00,607.26
             544.45,605.44 535.07,601.77 529.00,598.73
             510.34,589.40 498.32,579.26 476.00,579.00
             458.84,578.80 447.15,580.36 433.00,591.24
             428.62,594.60 425.80,597.19 422.93,602.00
             421.41,604.54 419.91,609.56 417.70,610.98
             415.78,612.21 412.25,612.00 410.00,612.00
             410.00,612.00 393.00,612.00 393.00,612.00
             384.05,611.83 386.59,608.65 382.44,602.00
             379.96,598.02 376.69,594.55 373.00,591.68
             358.66,580.53 346.41,578.80 329.00,579.00
             299.14,579.35 283.96,599.42 252.00,607.84
             233.81,612.64 211.45,612.74 193.00,609.39
             193.00,609.39 168.00,603.00 168.00,603.00
             168.00,638.45 190.11,665.94 227.00,666.00
             227.00,666.00 454.00,666.00 454.00,666.00
             454.00,666.00 580.00,666.00 580.00,666.00
             602.01,665.74 623.24,652.34 632.13,632.00
             636.60,621.75 637.00,613.87 637.00,603.00
             637.00,603.00 612.00,609.39 612.00,609.39 Z" />
</svg>
