<?xml version="1.0" encoding="UTF-8" standalone="no"?>
<!DOCTYPE svg PUBLIC "-//W3C//DTD SVG 20010904//EN"
              "http://www.w3.org/TR/2001/REC-SVG-20010904/DTD/svg10.dtd">

<svg xmlns="http://www.w3.org/2000/svg"
     width="2.36111in" height="2.36111in"
     viewBox="0 0 170 170">
  <path id="Selection"
        fill="none" stroke="black" stroke-width="1"
        d="M 97.00,0.00
           C 103.64,0.01 108.72,1.00 115.00,3.24
             145.16,14.00 155.72,39.55 160.27,69.00
             160.27,69.00 161.96,78.00 161.96,78.00
             161.96,78.00 161.96,87.00 161.96,87.00
             161.96,87.00 163.00,97.00 163.00,97.00
             163.00,97.00 162.09,110.00 162.09,110.00
             160.60,131.66 154.46,158.47 132.00,167.55
             124.30,170.66 119.08,170.09 111.00,170.00
             99.27,169.86 86.35,164.43 76.00,159.25
             46.69,144.56 7.42,110.49 7.00,75.00
             6.65,44.27 26.74,20.39 54.00,8.09
             63.56,3.78 68.16,2.92 78.00,0.51
             83.54,-0.35 91.21,-0.01 97.00,0.00 Z
           M 61.78,65.00
           C 61.26,71.80 57.37,76.70 53.64,82.00
             52.20,84.06 49.83,86.98 51.71,89.49
             53.98,92.54 59.06,91.77 62.00,90.31
             69.37,86.66 73.60,77.02 83.00,78.23
             89.89,79.11 93.12,84.86 96.72,90.00
             96.72,90.00 117.98,120.00 117.98,120.00
             121.05,124.43 124.67,130.52 130.98,129.73
             132.16,129.58 133.52,129.16 134.36,128.26
             136.55,125.91 134.22,121.45 133.14,119.00
             133.14,119.00 121.24,94.00 121.24,94.00
             121.24,94.00 105.78,62.00 105.78,62.00
             101.82,53.62 99.71,46.42 91.00,41.36
             81.02,35.56 61.66,37.00 50.00,37.00
             52.82,46.67 62.59,54.26 61.78,65.00 Z
           M 79.40,112.00
           C 79.40,112.00 86.42,100.00 86.42,100.00
             88.03,97.22 90.83,93.29 90.64,90.00
             90.29,83.75 82.37,80.41 78.63,82.99
             76.14,84.72 73.08,92.97 71.69,96.00
             67.41,105.33 53.14,124.31 69.00,130.00
             69.00,130.00 79.40,112.00 79.40,112.00 Z" />
</svg>
