<?xml version="1.0" encoding="UTF-8" standalone="no"?>
<!DOCTYPE svg PUBLIC "-//W3C//DTD SVG 20010904//EN"
              "http://www.w3.org/TR/2001/REC-SVG-20010904/DTD/svg10.dtd">

<svg xmlns="http://www.w3.org/2000/svg"
     width="15.5556in" height="15.5556in"
     viewBox="0 0 1400 1400">
  <path id="Selection"
        fill="none" stroke="black" stroke-width="1"
        d="M 190.00,1376.00
           C 190.00,1376.00 128.00,1376.00 128.00,1376.00
             102.73,1376.00 81.73,1378.62 59.00,1364.80
             52.63,1360.92 46.20,1355.77 41.46,1350.00
             36.57,1344.04 33.04,1337.96 29.78,1331.00
             25.82,1322.55 24.01,1313.30 24.00,1304.00
             24.00,1304.00 24.00,320.00 24.00,320.00
             24.00,320.00 24.00,95.00 24.00,95.00
             24.06,57.41 57.41,24.06 95.00,24.00
             95.00,24.00 1080.00,24.00 1080.00,24.00
             1080.00,24.00 1305.00,24.00 1305.00,24.00
             1315.51,24.02 1323.53,26.29 1333.00,30.71
             1360.70,43.63 1375.95,69.82 1376.00,100.00
             1376.00,100.00 1376.00,1081.00 1376.00,1081.00
             1376.00,1081.00 1376.00,1300.00 1376.00,1300.00
             1375.93,1342.78 1342.79,1375.93 1300.00,1376.00
             1300.00,1376.00 955.00,1376.00 955.00,1376.00
             955.00,1376.00 956.00,1355.00 956.00,1355.00
             956.00,1355.00 956.00,1321.00 956.00,1321.00
             956.00,1321.00 956.00,1209.00 956.00,1209.00
             956.00,1209.00 956.00,852.00 956.00,852.00
             956.00,852.00 1132.00,852.00 1132.00,852.00
             1132.00,852.00 1135.72,820.00 1135.72,820.00
             1135.72,820.00 1142.72,766.00 1142.72,766.00
             1142.72,766.00 1153.72,681.00 1153.72,681.00
             1153.72,681.00 1158.00,649.00 1158.00,649.00
             1158.00,649.00 956.00,649.00 956.00,649.00
             956.00,649.00 956.00,508.00 956.00,508.00
             956.00,508.00 956.91,498.00 956.91,498.00
             958.51,476.09 963.97,454.42 981.00,439.17
             997.22,424.64 1020.00,420.38 1041.00,418.91
             1041.00,418.91 1053.00,418.00 1053.00,418.00
             1053.00,418.00 1165.00,418.00 1165.00,418.00
             1165.00,418.00 1165.00,246.00 1165.00,246.00
             1164.99,243.46 1165.32,239.53 1163.40,237.60
             1161.83,236.02 1159.08,236.01 1157.00,235.72
             1157.00,235.72 1139.00,234.01 1139.00,234.01
             1139.00,234.01 1116.00,232.00 1116.00,232.00
             1116.00,232.00 1107.00,232.00 1107.00,232.00
             1107.00,232.00 1094.00,231.00 1094.00,231.00
             1094.00,231.00 1082.00,230.04 1082.00,230.04
             1082.00,230.04 1070.00,230.04 1070.00,230.04
             1070.00,230.04 1053.00,229.00 1053.00,229.00
             1053.00,229.00 992.00,229.00 992.00,229.00
             980.88,229.02 961.28,231.69 950.00,233.59
             903.58,241.38 862.46,259.63 827.00,290.85
             822.54,294.77 818.16,298.58 814.17,303.00
             778.35,342.59 758.23,388.39 750.43,441.00
             745.41,474.84 746.00,508.87 746.00,543.00
             746.00,543.00 746.00,649.00 746.00,649.00
             746.00,649.00 570.00,649.00 570.00,649.00
             570.00,649.00 570.00,852.00 570.00,852.00
             570.00,852.00 746.00,852.00 746.00,852.00
             746.00,852.00 746.00,1209.00 746.00,1209.00
             746.00,1209.00 746.00,1321.00 746.00,1321.00
             746.00,1321.00 746.00,1355.00 746.00,1355.00
             746.00,1355.00 747.00,1376.00 747.00,1376.00
             747.00,1376.00 190.00,1376.00 190.00,1376.00 Z" />
</svg>
