<?xml version="1.0" encoding="UTF-8" standalone="no"?>
<!DOCTYPE svg PUBLIC "-//W3C//DTD SVG 20010904//EN"
              "http://www.w3.org/TR/2001/REC-SVG-20010904/DTD/svg10.dtd">

<svg xmlns="http://www.w3.org/2000/svg"
     width="8.88889in" height="8.88889in"
     viewBox="0 0 800 800">
  <path id="Selection"
        fill="none" stroke="black" stroke-width="1"
        d="M 196.00,610.56
           C 212.57,613.23 234.71,612.68 251.00,608.63
             277.24,602.10 285.44,591.79 305.00,584.42
             314.67,580.78 324.77,579.88 335.00,579.37
             353.37,578.45 382.85,591.72 385.00,612.00
             385.00,612.00 420.00,612.00 420.00,612.00
             423.19,591.70 451.06,578.43 470.00,579.37
             480.31,579.89 490.24,580.75 500.00,584.42
             519.56,591.79 527.76,602.10 554.00,608.63
             570.29,612.68 592.43,613.23 609.00,610.56
             609.00,610.56 623.00,607.57 623.00,607.57
             627.98,606.17 630.64,604.83 636.00,604.00
             636.00,612.20 636.44,616.90 633.96,625.00
             627.24,647.01 606.48,664.72 583.00,665.00
             583.00,665.00 455.00,665.00 455.00,665.00
             455.00,665.00 225.00,665.00 225.00,665.00
             200.54,664.96 179.13,649.32 171.52,626.00
             168.80,617.67 169.00,612.48 169.00,604.00
             169.00,604.00 196.00,610.56 196.00,610.56 Z" />
</svg>
