<?xml version="1.0" encoding="UTF-8" standalone="no"?>
<!DOCTYPE svg PUBLIC "-//W3C//DTD SVG 20010904//EN"
              "http://www.w3.org/TR/2001/REC-SVG-20010904/DTD/svg10.dtd">

<svg xmlns="http://www.w3.org/2000/svg"
     width="13.8889in" height="13.8889in"
     viewBox="0 0 1000 1000">
  <path id="Selection #5"
        fill="none" stroke="black" stroke-width="1"
        d="M 750.00,320.00
           C 750.00,320.00 750.00,680.00 750.00,680.00
             750.00,680.00 250.00,680.00 250.00,680.00
             250.00,680.00 250.00,320.00 250.00,320.00
             250.00,320.00 750.00,320.00 750.00,320.00 Z
           M 219.00,431.00
           C 219.00,431.00 219.00,569.00 219.00,569.00
             219.00,569.00 26.00,569.00 26.00,569.00
             26.00,569.00 26.00,431.00 26.00,431.00
             26.00,431.00 219.00,431.00 219.00,431.00 Z
           M 974.00,431.00
           C 974.00,431.00 974.00,569.00 974.00,569.00
             974.00,569.00 782.00,569.00 782.00,569.00
             782.00,569.00 782.00,431.00 782.00,431.00
             782.00,431.00 974.00,431.00 974.00,431.00 Z" />
</svg>
